<?xml version="1.0" encoding="UTF-8" ?>
<!DOCTYPE svg PUBLIC "-//W3C//DTD SVG 1.1//EN" "http://www.w3.org/Graphics/SVG/1.1/DTD/svg11.dtd">
<svg width="469pt" height="192pt" viewBox="0 0 469 192" version="1.1" xmlns="http://www.w3.org/2000/svg">
<path fill="#ffffff" d=" M 0.00 0.00 L 379.42 0.00 C 371.88 1.15 364.51 4.74 359.72 10.80 C 357.42 13.58 356.05 16.95 354.38 20.12 C 342.89 19.60 331.36 19.67 319.87 20.04 C 323.71 26.78 328.49 32.93 332.56 39.54 C 335.63 39.69 338.70 39.75 341.77 39.64 C 368.24 39.74 394.72 39.54 421.20 39.75 C 417.62 53.16 412.58 66.13 408.64 79.43 C 402.66 100.17 394.98 120.39 389.01 141.13 C 386.80 147.66 384.60 154.20 382.60 160.80 C 383.17 164.00 384.87 166.82 386.28 169.71 C 389.53 176.09 392.32 182.70 395.68 189.02 C 399.87 176.32 404.14 163.64 408.15 150.88 C 412.70 137.67 417.05 124.40 421.36 111.12 C 428.97 88.41 436.67 65.71 443.96 42.89 C 444.34 41.90 444.71 40.90 445.08 39.90 C 441.16 32.90 436.75 26.17 432.48 19.37 C 431.05 19.50 429.63 19.61 428.22 19.70 C 422.04 19.99 415.85 19.62 409.68 20.06 C 407.92 16.95 406.57 13.58 404.27 10.80 C 399.49 4.74 392.11 1.14 384.57 0.00 L 469.00 0.00 L 469.00 192.00 L 0.00 192.00 L 0.00 0.00 Z" />
<path fill="#334d5c" d=" M 379.42 0.00 L 384.57 0.00 C 392.11 1.14 399.49 4.74 404.27 10.80 C 406.57 13.58 407.92 16.95 409.68 20.06 C 411.31 22.81 414.08 24.96 414.97 28.08 C 415.24 33.16 408.31 36.04 405.04 31.98 C 401.05 28.17 407.05 24.10 406.18 19.86 C 402.47 10.06 392.55 2.88 382.00 3.00 C 371.47 2.90 361.52 10.03 357.84 19.83 C 357.27 23.60 360.47 26.60 360.85 30.27 C 358.57 32.17 355.99 33.67 353.10 34.37 C 351.27 32.39 348.40 30.29 349.10 27.22 C 350.43 24.56 352.80 22.62 354.38 20.12 C 356.05 16.95 357.42 13.58 359.72 10.80 C 364.51 4.74 371.88 1.15 379.42 0.00 Z" />
<path fill="#ffffff" d=" M 357.84 19.83 C 361.52 10.03 371.47 2.90 382.00 3.00 C 392.55 2.88 402.47 10.06 406.18 19.86 C 397.23 19.77 388.29 19.75 379.34 19.90 C 372.18 19.76 365.01 19.75 357.84 19.83 Z" />
<path fill="#d01461" d=" M 428.22 19.70 C 429.63 19.61 431.05 19.50 432.48 19.37 C 436.75 26.17 441.16 32.90 445.08 39.90 C 437.40 39.90 429.71 40.02 422.04 39.77 C 423.46 32.89 426.90 26.62 428.22 19.70 Z" />
<path fill="#25aae2" d=" M 319.87 20.04 C 331.36 19.67 342.89 19.60 354.38 20.12 C 352.80 22.62 350.43 24.56 349.10 27.22 C 348.40 30.29 351.27 32.39 353.10 34.37 C 349.06 35.53 345.49 37.77 341.77 39.64 C 338.70 39.75 335.63 39.69 332.56 39.54 C 328.49 32.93 323.71 26.78 319.87 20.04 Z" />
<path fill="#25aae2" d=" M 357.84 19.83 C 365.01 19.75 372.18 19.76 379.34 19.90 C 373.65 24.19 366.69 26.27 360.85 30.27 C 360.47 26.60 357.27 23.60 357.84 19.83 Z" />
<path fill="#662e91" d=" M 379.34 19.90 C 388.29 19.75 397.23 19.77 406.18 19.86 C 407.05 24.10 401.05 28.17 405.04 31.98 C 408.31 36.04 415.24 33.16 414.97 28.08 C 414.08 24.96 411.31 22.81 409.68 20.06 C 415.85 19.62 422.04 19.99 428.22 19.70 C 426.90 26.62 423.46 32.89 422.04 39.77 L 421.20 39.75 C 394.72 39.54 368.24 39.74 341.77 39.64 C 345.49 37.77 349.06 35.53 353.10 34.37 C 355.99 33.67 358.57 32.17 360.85 30.27 C 366.69 26.27 373.65 24.19 379.34 19.90 Z" />
<path fill="#ffffff" d=" M 352.23 30.77 C 350.08 29.11 351.32 26.40 352.74 24.76 C 352.96 26.52 353.11 28.29 353.29 30.05 C 354.01 30.10 355.45 30.21 356.17 30.26 C 356.39 28.48 356.60 26.69 356.84 24.91 C 357.80 26.17 359.15 27.78 358.31 29.45 C 357.45 31.91 353.97 32.97 352.23 30.77 Z" />
<path fill="#ffffff" d=" M 409.79 31.94 C 405.82 32.59 404.01 27.15 407.17 24.91 C 407.41 26.69 407.60 28.47 407.83 30.25 C 408.55 30.20 410.00 30.11 410.72 30.06 C 410.88 28.29 411.02 26.52 411.24 24.75 C 413.78 26.90 413.27 31.18 409.79 31.94 Z" />
<path fill="#334d5c" d=" M 103.67 31.75 C 107.38 29.37 112.72 30.04 115.69 33.30 C 117.98 35.55 118.25 38.96 118.48 41.97 C 118.76 51.91 118.26 61.87 118.74 71.81 C 122.50 68.94 125.71 65.25 130.11 63.30 C 139.89 58.82 152.37 59.24 160.98 66.07 C 167.11 71.10 169.61 79.24 169.67 86.94 C 169.70 100.97 169.65 115.02 169.70 129.06 C 169.76 131.99 169.09 135.03 167.31 137.42 C 164.02 141.32 157.43 141.80 153.65 138.33 C 150.91 135.66 150.76 131.56 150.66 127.98 C 150.62 116.67 150.73 105.36 150.63 94.06 C 150.33 88.91 150.11 83.32 147.02 78.96 C 144.56 75.46 140.03 74.40 135.97 74.62 C 128.61 74.56 122.00 80.14 119.83 87.00 C 118.70 91.24 118.64 95.66 118.58 100.02 C 118.47 109.35 118.62 118.69 118.52 128.02 C 118.33 131.35 118.16 135.15 115.68 137.68 C 113.04 140.62 108.48 141.46 104.88 139.93 C 100.78 138.65 99.50 133.85 99.33 130.03 C 99.30 100.67 99.35 71.31 99.31 41.95 C 99.34 38.24 100.20 33.77 103.67 31.75 Z" />
<path fill="#ec008c" d=" M 421.20 39.75 L 422.04 39.77 C 429.71 40.02 437.40 39.90 445.08 39.90 C 444.71 40.90 444.34 41.90 443.96 42.89 C 441.15 45.45 438.31 47.99 435.86 50.91 C 429.41 58.43 422.61 65.63 416.14 73.13 C 413.97 75.57 411.98 78.56 408.64 79.43 C 412.58 66.13 417.62 53.16 421.20 39.75 Z" />
<path fill="#f838aa" d=" M 435.86 50.91 C 438.31 47.99 441.15 45.45 443.96 42.89 C 436.67 65.71 428.97 88.41 421.36 111.12 C 421.29 110.62 421.17 109.60 421.10 109.09 C 416.27 112.91 412.58 117.90 408.20 122.18 C 401.77 128.47 395.83 135.25 389.01 141.13 C 394.98 120.39 402.66 100.17 408.64 79.43 C 411.98 78.56 413.97 75.57 416.14 73.13 C 422.61 65.63 429.41 58.43 435.86 50.91 Z" />
<path fill="#334d5c" d=" M 41.44 60.59 C 51.35 59.84 61.95 61.17 70.47 66.61 C 74.96 69.80 79.67 75.03 77.99 80.98 C 76.78 85.86 70.59 86.93 66.48 85.32 C 61.33 81.97 58.61 75.42 52.48 73.47 C 46.93 71.92 40.45 72.17 35.66 75.67 C 32.99 77.54 32.54 81.35 33.75 84.20 C 35.30 86.84 38.31 88.05 41.04 89.09 C 50.84 92.38 61.38 93.55 70.63 98.39 C 75.24 100.79 79.65 104.34 81.33 109.43 C 83.96 118.02 80.98 128.19 73.73 133.63 C 66.73 139.00 57.62 140.22 49.06 140.67 C 39.82 140.73 30.11 139.06 22.49 133.50 C 17.78 129.91 13.85 124.17 14.77 118.01 C 15.74 112.06 24.69 109.88 28.11 114.87 C 31.44 119.44 34.31 125.05 40.05 126.97 C 46.78 129.10 54.94 129.33 60.82 124.89 C 63.88 122.80 64.09 118.44 62.96 115.24 C 61.51 111.51 57.36 110.21 53.94 108.93 C 44.66 105.94 34.81 104.42 26.16 99.70 C 21.79 97.31 17.86 93.65 16.33 88.78 C 13.89 81.82 16.47 73.72 21.78 68.79 C 26.88 63.48 34.31 61.32 41.44 60.59 Z" />
<path fill="#334d5c" d=" M 220.46 60.63 C 229.81 59.70 239.62 61.43 247.69 66.39 C 255.20 71.29 260.89 78.93 263.12 87.64 C 266.22 99.83 265.12 113.54 258.24 124.29 C 253.73 130.83 247.20 136.04 239.58 138.45 C 228.10 142.06 215.02 141.36 204.43 135.41 C 197.74 131.70 192.47 125.62 189.49 118.60 C 185.24 108.56 184.92 97.07 187.89 86.64 C 190.17 79.05 194.68 71.90 201.32 67.42 C 206.95 63.50 213.66 61.31 220.46 60.63 Z" />
<path fill="#334d5c" d=" M 282.41 63.37 C 285.38 59.45 291.94 59.12 295.26 62.76 C 298.38 65.31 297.99 69.67 298.54 73.26 C 302.62 71.35 304.80 66.99 308.74 64.83 C 322.01 56.13 341.40 60.77 350.14 73.75 C 357.93 85.14 359.18 99.99 356.11 113.19 C 354.00 121.68 349.62 130.14 342.13 135.06 C 332.08 142.04 317.53 142.80 307.41 135.57 C 304.09 133.33 301.67 130.07 298.44 127.74 C 298.17 137.81 298.45 147.89 298.31 157.97 C 298.18 161.31 298.07 165.07 295.70 167.69 C 292.30 172.05 284.07 171.73 281.70 166.48 C 280.71 163.79 280.30 160.91 280.31 158.05 C 280.34 129.03 280.32 100.01 280.31 70.99 C 280.34 68.35 280.75 65.52 282.41 63.37 Z" />
<path fill="#ffffff" d=" M 220.30 75.21 C 226.31 73.82 233.18 74.83 237.85 79.11 C 243.58 84.35 245.60 92.48 245.40 100.01 C 245.64 106.71 244.39 113.71 240.28 119.17 C 233.58 128.73 217.40 128.83 210.57 119.36 C 204.93 111.64 204.42 101.30 206.06 92.18 C 207.32 84.58 212.41 76.98 220.30 75.21 Z" />
<path fill="#ffffff" d=" M 314.29 75.28 C 318.59 74.21 323.39 74.35 327.29 76.63 C 334.02 80.13 337.20 87.85 338.03 95.03 C 339.00 104.14 337.90 114.40 331.38 121.37 C 324.73 128.32 312.55 127.84 306.12 120.85 C 298.94 113.29 298.49 101.90 300.11 92.16 C 301.38 84.56 306.61 77.30 314.29 75.28 Z" />
<path fill="#d01461" d=" M 408.20 122.18 C 412.58 117.90 416.27 112.91 421.10 109.09 C 421.17 109.60 421.29 110.62 421.36 111.12 C 417.05 124.40 412.70 137.67 408.15 150.88 C 399.35 153.42 391.33 158.04 382.60 160.80 C 384.60 154.20 386.80 147.66 389.01 141.13 C 395.83 135.25 401.77 128.47 408.20 122.18 Z" />
<path fill="#f7941d" d=" M 382.60 160.80 C 391.33 158.04 399.35 153.42 408.15 150.88 C 404.14 163.64 399.87 176.32 395.68 189.02 C 392.32 182.70 389.53 176.09 386.28 169.71 C 384.87 166.82 383.17 164.00 382.60 160.80 Z" />
</svg>
